REM DIRINDEX 1\2\4,1\2\5,1\3\6,1\3\7,1\3\8
REM DIRNAME cjc094,folder01,folder02,folder03,folder04,folder05,folder06,folder07
TITLE ""
FILE "LV6_109_WORDS.mp3" MP3
  TRACK 01 AUDIO
    TITLE "0:"
    INDEX 01 00:00:00
  TRACK 02 AUDIO
    TITLE "6:cjc094_3726"
    INDEX 01 00:00:01
  TRACK 03 AUDIO
    TITLE "0:"
    INDEX 01 00:01:71
  TRACK 04 AUDIO
    TITLE "7:cjc094_3727"
    INDEX 01 00:02:57
  TRACK 05 AUDIO
    TITLE "0:"
    INDEX 01 00:03:59
  TRACK 06 AUDIO
    TITLE "8:cjc094_3728"
    INDEX 01 00:03:72
  TRACK 07 AUDIO
    TITLE "0:"
    INDEX 01 00:06:14
  TRACK 08 AUDIO
    TITLE "7:cjc094_3729"
    INDEX 01 00:06:63
  TRACK 09 AUDIO
    TITLE "0:"
    INDEX 01 00:07:62
  TRACK 10 AUDIO
    TITLE "8:cjc094_3730"
    INDEX 01 00:08:09
  TRACK 11 AUDIO
    TITLE "0:"
    INDEX 01 00:09:14
  TRACK 12 AUDIO
    TITLE "7:cjc094_3731"
    INDEX 01 00:09:63
  TRACK 13 AUDIO
    TITLE "0:"
    INDEX 01 00:10:72
  TRACK 14 AUDIO
    TITLE "8:cjc094_3732"
    INDEX 01 00:11:13
  TRACK 15 AUDIO
    TITLE "0:"
    INDEX 01 00:13:47
  TRACK 16 AUDIO
    TITLE "7:cjc094_3733"
    INDEX 01 00:14:19
  TRACK 17 AUDIO
    TITLE "0:"
    INDEX 01 00:15:23
  TRACK 18 AUDIO
    TITLE "8:cjc094_3734"
    INDEX 01 00:15:38
  TRACK 19 AUDIO
    TITLE "0:"
    INDEX 01 00:16:42
  TRACK 20 AUDIO
    TITLE "7:cjc094_3735"
    INDEX 01 00:17:14
  TRACK 21 AUDIO
    TITLE "0:"
    INDEX 01 00:18:39
  TRACK 22 AUDIO
    TITLE "8:cjc094_3736"
    INDEX 01 00:18:56
  TRACK 23 AUDIO
    TITLE "0:"
    INDEX 01 00:19:65
  TRACK 24 AUDIO
    TITLE "7:cjc094_3737"
    INDEX 01 00:20:39
  TRACK 25 AUDIO
    TITLE "0:"
    INDEX 01 00:21:47
  TRACK 26 AUDIO
    TITLE "8:cjc094_3738"
    INDEX 01 00:21:62
  TRACK 27 AUDIO
    TITLE "0:"
    INDEX 01 00:24:20
  TRACK 28 AUDIO
    TITLE "7:cjc094_3739"
    INDEX 01 00:24:69
  TRACK 29 AUDIO
    TITLE "0:"
    INDEX 01 00:25:62
  TRACK 30 AUDIO
    TITLE "8:cjc094_3740"
    INDEX 01 00:26:01
  TRACK 31 AUDIO
    TITLE "0:"
    INDEX 01 00:29:38
  TRACK 32 AUDIO
    TITLE "7:cjc094_3741"
    INDEX 01 00:30:10
  TRACK 33 AUDIO
    TITLE "0:"
    INDEX 01 00:31:18
  TRACK 34 AUDIO
    TITLE "8:cjc094_3742"
    INDEX 01 00:31:35
  TRACK 35 AUDIO
    TITLE "0:"
    INDEX 01 00:33:42
  TRACK 36 AUDIO
    TITLE "7:cjc094_3743"
    INDEX 01 00:34:18
  TRACK 37 AUDIO
    TITLE "0:"
    INDEX 01 00:35:23
  TRACK 38 AUDIO
    TITLE "8:cjc094_3744"
    INDEX 01 00:35:41
  TRACK 39 AUDIO
    TITLE "0:"
    INDEX 01 00:39:23
  TRACK 40 AUDIO
    TITLE "7:cjc094_3745"
    INDEX 01 00:39:72
  TRACK 41 AUDIO
    TITLE "0:"
    INDEX 01 00:40:72
  TRACK 42 AUDIO
    TITLE "8:cjc094_3746"
    INDEX 01 00:41:14
  TRACK 43 AUDIO
    TITLE "0:"
    INDEX 01 00:42:39
  TRACK 44 AUDIO
    TITLE "7:cjc094_3747"
    INDEX 01 00:43:11
  TRACK 45 AUDIO
    TITLE "0:"
    INDEX 01 00:44:38
  TRACK 46 AUDIO
    TITLE "8:cjc094_3748"
    INDEX 01 00:44:60
  TRACK 47 AUDIO
    TITLE "0:"
    INDEX 01 00:46:09
  TRACK 48 AUDIO
    TITLE "7:cjc094_3749"
    INDEX 01 00:46:58
  TRACK 49 AUDIO
    TITLE "0:"
    INDEX 01 00:47:68
  TRACK 50 AUDIO
    TITLE "8:cjc094_3750"
    INDEX 01 00:48:14
  TRACK 51 AUDIO
    TITLE "0:"
    INDEX 01 00:49:06
  TRACK 52 AUDIO
    TITLE "7:cjc094_3751"
    INDEX 01 00:49:57
  TRACK 53 AUDIO
    TITLE "0:"
    INDEX 01 00:50:60
  TRACK 54 AUDIO
    TITLE "8:cjc094_3752"
    INDEX 01 00:51:03
  TRACK 55 AUDIO
    TITLE "0:"
    INDEX 01 00:52:14
  TRACK 56 AUDIO
    TITLE "7:cjc094_3753"
    INDEX 01 00:52:67
  TRACK 57 AUDIO
    TITLE "0:"
    INDEX 01 00:53:62
  TRACK 58 AUDIO
    TITLE "8:cjc094_3754"
    INDEX 01 00:54:11
  TRACK 59 AUDIO
    TITLE "0:"
    INDEX 01 00:55:20
  TRACK 60 AUDIO
    TITLE "7:cjc094_3755"
    INDEX 01 00:55:71
  TRACK 61 AUDIO
    TITLE "0:"
    INDEX 01 00:56:63
  TRACK 62 AUDIO
    TITLE "8:cjc094_3756"
    INDEX 01 00:57:07
  TRACK 63 AUDIO
    TITLE "0:"
    INDEX 01 00:58:11
